<svg width="125" height="40" viewBox="0 0 125 40" fill="none" xmlns="http://www.w3.org/2000/svg">
<path d="M0 10.5C0 7.23841 0 5.60761 0.532843 4.32122C1.2433 2.60602 2.60602 1.2433 4.32122 0.532843C5.60761 0 7.23841 0 10.5 0H114.5C117.762 0 119.392 0 120.679 0.532843C122.394 1.2433 123.757 2.60602 124.467 4.32122C125 5.60761 125 7.23841 125 10.5V29.5C125 32.7616 125 34.3924 124.467 35.6788C123.757 37.394 122.394 38.7567 120.679 39.4672C119.392 40 117.762 40 114.5 40H10.5C7.23841 40 5.60761 40 4.32122 39.4672C2.60602 38.7567 1.2433 37.394 0.532843 35.6788C0 34.3924 0 32.7616 0 29.5V10.5Z" fill="#0C0D10"/>
<path d="M84.9228 19.2009V21.4919H83.4269V22.9944H84.9228V28.0994C84.9228 29.8425 85.7442 30.5398 87.8108 30.5398C88.1739 30.5398 88.5198 30.4983 88.8224 30.4485V28.9626C88.563 28.9875 88.3987 29.0042 88.1134 29.0042C87.1882 29.0042 86.7818 28.5891 86.7818 27.6428V22.9944H88.8224V21.4919H86.7818V19.2009H84.9228Z" fill="white"/>
<path d="M94.0868 30.6643C96.8365 30.6643 98.5226 28.8962 98.5226 25.9661C98.5226 23.0525 96.8278 21.2761 94.0868 21.2761C91.3372 21.2761 89.6425 23.0525 89.6425 25.9661C89.6425 28.8962 91.3286 30.6643 94.0868 30.6643ZM94.0868 29.0789C92.4699 29.0789 91.562 27.9417 91.562 25.9661C91.562 24.0071 92.4699 22.8616 94.0868 22.8616C95.6951 22.8616 96.6117 24.0071 96.6117 25.9661C96.6117 27.9333 95.6951 29.0789 94.0868 29.0789Z" fill="white"/>
<path d="M99.9652 30.49H101.824V25.1526C101.824 23.8826 102.819 23.0276 104.228 23.0276C104.557 23.0276 105.11 23.0857 105.266 23.1355V21.3757C105.067 21.3259 104.712 21.301 104.435 21.301C103.208 21.301 102.161 21.9485 101.893 22.8367H101.755V21.4504H99.9652V30.49Z" fill="white"/>
<path d="M109.882 22.7952C111.256 22.7952 112.156 23.7166 112.199 25.136H107.443C107.547 23.7249 108.507 22.7952 109.882 22.7952ZM112.19 28.0496C111.844 28.7551 111.075 29.1453 109.951 29.1453C108.463 29.1453 107.504 28.1409 107.443 26.5554V26.4558H114.092V25.8333C114.092 22.9944 112.51 21.2761 109.89 21.2761C107.236 21.2761 105.55 23.1106 105.55 25.9993C105.55 28.8879 107.201 30.6643 109.899 30.6643C112.052 30.6643 113.556 29.6682 113.98 28.0496H112.19Z" fill="white"/>
<path d="M72.7315 27.1518C72.8749 29.3715 74.8018 30.7911 77.6696 30.7911C80.7346 30.7911 82.6525 29.3027 82.6525 26.9281C82.6525 25.0612 81.5591 24.0288 78.9064 23.4351L77.4814 23.0996C75.7966 22.721 75.1154 22.2134 75.1154 21.3272C75.1154 20.2088 76.173 19.4775 77.7592 19.4775C79.2648 19.4775 80.3044 20.1916 80.4926 21.3358H82.4464C82.3298 19.2452 80.412 17.774 77.7861 17.774C74.9631 17.774 73.0811 19.2452 73.0811 21.4563C73.0811 23.2802 74.1475 24.3643 76.4866 24.8891L78.1536 25.2763C79.8653 25.6634 80.6181 26.2312 80.6181 27.1776C80.6181 28.2789 79.4351 29.079 77.822 29.079C76.0923 29.079 74.8914 28.3305 74.7211 27.1518H72.7315Z" fill="white"/>
<path d="M53.4739 21.301C52.1942 21.301 51.0874 21.9153 50.5168 22.9446H50.3784V21.4504H48.5886V33.4949H50.4476V29.1204H50.5946C51.0874 30.075 52.151 30.6394 53.4912 30.6394C55.869 30.6394 57.3822 28.8381 57.3822 25.9661C57.3822 23.094 55.869 21.301 53.4739 21.301ZM52.9465 29.0374C51.3901 29.0374 50.413 27.8586 50.413 25.9744C50.413 24.0818 51.3901 22.9031 52.9551 22.9031C54.5288 22.9031 55.4713 24.0569 55.4713 25.9661C55.4713 27.8835 54.5288 29.0374 52.9465 29.0374Z" fill="white"/>
<path d="M63.8872 21.301C62.6075 21.301 61.5008 21.9153 60.9301 22.9446H60.7917V21.4504H59.0019V33.4949H60.8609V29.1204H61.0079C61.5008 30.075 62.5643 30.6394 63.9045 30.6394C66.2824 30.6394 67.7955 28.8381 67.7955 25.9661C67.7955 23.094 66.2824 21.301 63.8872 21.301ZM63.3598 29.0374C61.8034 29.0374 60.8263 27.8586 60.8263 25.9744C60.8263 24.0818 61.8034 22.9031 63.3684 22.9031C64.9421 22.9031 65.8846 24.0569 65.8846 25.9661C65.8846 27.8835 64.9421 29.0374 63.3598 29.0374Z" fill="white"/>
<path d="M45.2531 30.49H47.3861L42.7169 18.0751H40.557L35.8878 30.49H37.9491L39.1411 27.1948H44.0702L45.2531 30.49ZM41.5339 20.3292H41.6863L43.5593 25.5774H39.6519L41.5339 20.3292Z" fill="white"/>
<path d="M37.1366 8.71094V14.7H39.389C41.2481 14.7 42.3246 13.6001 42.3246 11.6868C42.3246 9.80249 41.2394 8.71094 39.389 8.71094H37.1366ZM38.105 9.55762H39.281C40.5736 9.55762 41.3389 10.3462 41.3389 11.6992C41.3389 13.073 40.5866 13.8533 39.281 13.8533H38.105V9.55762Z" fill="white"/>
<path d="M45.6216 14.7871C46.9964 14.7871 47.8394 13.9031 47.8394 12.438C47.8394 10.9812 46.992 10.093 45.6216 10.093C44.2467 10.093 43.3994 10.9812 43.3994 12.438C43.3994 13.9031 44.2424 14.7871 45.6216 14.7871ZM45.6216 13.9944C44.8131 13.9944 44.3591 13.4258 44.3591 12.438C44.3591 11.4585 44.8131 10.8857 45.6216 10.8857C46.4257 10.8857 46.884 11.4585 46.884 12.438C46.884 13.4216 46.4257 13.9944 45.6216 13.9944Z" fill="white"/>
<path d="M55.0187 10.1802H54.0892L53.2505 13.6292H53.177L52.2086 10.1802H51.318L50.3495 13.6292H50.2804L49.4373 10.1802H48.4948L49.7918 14.7H50.7473L51.7157 11.3713H51.7892L52.762 14.7H53.7261L55.0187 10.1802Z" fill="white"/>
<path d="M56.0892 14.7H57.0187V12.0562C57.0187 11.3506 57.4554 10.9106 58.1428 10.9106C58.8302 10.9106 59.1587 11.2717 59.1587 11.998V14.7H60.0883V11.7739C60.0883 10.699 59.5089 10.093 58.4584 10.093C57.7493 10.093 57.2824 10.396 57.0533 10.8982H56.9841V10.1802H56.0892V14.7Z" fill="white"/>
<path d="M61.5521 14.7H62.4816V8.41626H61.5521V14.7Z" fill="white"/>
<path d="M65.9775 14.7871C67.3523 14.7871 68.1954 13.9031 68.1954 12.438C68.1954 10.9812 67.348 10.093 65.9775 10.093C64.6027 10.093 63.7553 10.9812 63.7553 12.438C63.7553 13.9031 64.5983 14.7871 65.9775 14.7871ZM65.9775 13.9944C65.169 13.9944 64.7151 13.4258 64.7151 12.438C64.7151 11.4585 65.169 10.8857 65.9775 10.8857C66.7816 10.8857 67.2399 11.4585 67.2399 12.438C67.2399 13.4216 66.7816 13.9944 65.9775 13.9944Z" fill="white"/>
<path d="M70.9649 14.0234C70.459 14.0234 70.0916 13.7869 70.0916 13.3801C70.0916 12.9817 70.3855 12.77 71.034 12.7285L72.184 12.658V13.0356C72.184 13.5959 71.6652 14.0234 70.9649 14.0234ZM70.7271 14.7747C71.3453 14.7747 71.8598 14.5173 72.1408 14.0649H72.2143V14.7H73.1092V11.6121C73.1092 10.6575 72.4434 10.093 71.2632 10.093C70.1953 10.093 69.4344 10.5911 69.3393 11.3672H70.2386C70.3423 11.0476 70.7011 10.865 71.2199 10.865C71.8555 10.865 72.184 11.1348 72.184 11.6121V12.0022L70.9087 12.0728C69.7889 12.1392 69.1577 12.6082 69.1577 13.4216C69.1577 14.2476 69.8192 14.7747 70.7271 14.7747Z" fill="white"/>
<path d="M76.2635 14.7747C76.912 14.7747 77.4611 14.48 77.7421 13.9861H77.8156V14.7H78.7062V8.41626H77.7767V10.8982H77.7075C77.4524 10.4001 76.9077 10.1055 76.2635 10.1055C75.0746 10.1055 74.3094 11.0103 74.3094 12.438C74.3094 13.8699 75.066 14.7747 76.2635 14.7747ZM76.5273 10.9065C77.3055 10.9065 77.794 11.5 77.794 12.4421C77.794 13.3884 77.3098 13.9736 76.5273 13.9736C75.7404 13.9736 75.2692 13.3967 75.2692 12.438C75.2692 11.4875 75.7447 10.9065 76.5273 10.9065Z" fill="white"/>
<path d="M84.7338 14.7871C86.1086 14.7871 86.9517 13.9031 86.9517 12.438C86.9517 10.9812 86.1043 10.093 84.7338 10.093C83.359 10.093 82.5116 10.9812 82.5116 12.438C82.5116 13.9031 83.3547 14.7871 84.7338 14.7871ZM84.7338 13.9944C83.9253 13.9944 83.4714 13.4258 83.4714 12.438C83.4714 11.4585 83.9253 10.8857 84.7338 10.8857C85.5379 10.8857 85.9962 11.4585 85.9962 12.438C85.9962 13.4216 85.5379 13.9944 84.7338 13.9944Z" fill="white"/>
<path d="M88.1821 14.7H89.1116V12.0562C89.1116 11.3506 89.5482 10.9106 90.2357 10.9106C90.9231 10.9106 91.2516 11.2717 91.2516 11.998V14.7H92.1812V11.7739C92.1812 10.699 91.6018 10.093 90.5513 10.093C89.8422 10.093 89.3753 10.396 89.1462 10.8982H89.077V10.1802H88.1821V14.7Z" fill="white"/>
<path d="M96.4621 9.05542V10.2009H95.7142V10.9521H96.4621V13.5046C96.4621 14.3762 96.8728 14.7249 97.9061 14.7249C98.0877 14.7249 98.2606 14.7041 98.4119 14.6792V13.9363C98.2822 13.9487 98.2001 13.957 98.0574 13.957C97.5948 13.957 97.3916 13.7495 97.3916 13.2764V10.9521H98.4119V10.2009H97.3916V9.05542H96.4621Z" fill="white"/>
<path d="M99.6596 14.7H100.589V12.0603C100.589 11.3755 101.013 10.9148 101.774 10.9148C102.431 10.9148 102.781 11.28 102.781 12.0022V14.7H103.711V11.7822C103.711 10.7073 103.092 10.0972 102.089 10.0972C101.38 10.0972 100.883 10.4001 100.654 10.9065H100.581V8.41626H99.6596V14.7Z" fill="white"/>
<path d="M107.064 10.8525C107.751 10.8525 108.201 11.3132 108.222 12.0229H105.845C105.896 11.3174 106.376 10.8525 107.064 10.8525ZM108.218 13.4797C108.045 13.8325 107.66 14.0276 107.098 14.0276C106.355 14.0276 105.875 13.5254 105.845 12.7327V12.6829H109.169V12.3716C109.169 10.9521 108.378 10.093 107.068 10.093C105.741 10.093 104.898 11.0103 104.898 12.4546C104.898 13.8989 105.724 14.7871 107.072 14.7871C108.149 14.7871 108.901 14.2891 109.113 13.4797H108.218Z" fill="white"/>
<path d="M25.801 20.3008C25.8236 18.6198 26.764 17.0292 28.2558 16.1488C27.3147 14.8584 25.7383 14.0403 24.0983 13.9911C22.3491 13.8148 20.6533 14.9959 19.762 14.9959C18.8534 14.9959 17.481 14.0086 16.0031 14.0378C14.0768 14.0975 12.281 15.1489 11.3438 16.7656C9.32924 20.1141 10.8319 25.0351 12.7617 27.7417C13.7273 29.0671 14.8557 30.5475 16.3322 30.495C17.777 30.4375 18.3167 29.6105 20.0607 29.6105C21.7886 29.6105 22.2949 30.495 23.8014 30.4616C25.3517 30.4375 26.3286 29.1304 27.2602 27.7925C27.9539 26.8481 28.4878 25.8044 28.8419 24.7C27.0199 23.9602 25.8032 22.2 25.801 20.3008Z" fill="white"/>
<path d="M22.9555 12.2111C23.8009 11.2369 24.2174 9.98469 24.1165 8.72046C22.825 8.85068 21.632 9.44324 20.7753 10.3801C19.9375 11.2954 19.5015 12.5255 19.5839 13.7415C20.8759 13.7542 22.146 13.1777 22.9555 12.2111Z" fill="white"/>
<path d="M4.32122 39.4672L3.93853 40.391L4.32122 39.4672ZM124.467 35.6788L125.391 36.0615L124.467 35.6788ZM120.679 39.4672L121.061 40.391L120.679 39.4672ZM120.679 0.532843L121.061 -0.391036L120.679 0.532843ZM124.467 4.32122L125.391 3.93853L124.467 4.32122ZM10.5 1H114.5V-1H10.5V1ZM124 10.5V29.5H126V10.5H124ZM114.5 39H10.5V41H114.5V39ZM1 29.5V10.5H-1V29.5H1ZM10.5 39C8.85552 39 7.67225 38.9995 6.73798 38.9357C5.8127 38.8726 5.20494 38.7508 4.7039 38.5433L3.93853 40.391C4.72389 40.7163 5.57473 40.861 6.60184 40.9311C7.61997 41.0005 8.88289 41 10.5 41V39ZM-1 29.5C-1 31.1171 -1.00054 32.38 -0.931075 33.3982C-0.860996 34.4253 -0.716341 35.2761 -0.391036 36.0615L1.45672 35.2961C1.24918 34.7951 1.12742 34.1873 1.06429 33.262C1.00054 32.3278 1 31.1445 1 29.5H-1ZM4.7039 38.5433C3.23373 37.9343 2.06569 36.7663 1.45672 35.2961L-0.391036 36.0615C0.420915 38.0217 1.97831 39.5791 3.93853 40.391L4.7039 38.5433ZM124 29.5C124 31.1445 123.999 32.3278 123.936 33.262C123.873 34.1873 123.751 34.7951 123.543 35.2961L125.391 36.0615C125.716 35.2761 125.861 34.4253 125.931 33.3982C126.001 32.38 126 31.1171 126 29.5H124ZM114.5 41C116.117 41 117.38 41.0005 118.398 40.9311C119.425 40.861 120.276 40.7163 121.061 40.391L120.296 38.5433C119.795 38.7508 119.187 38.8726 118.262 38.9357C117.328 38.9995 116.144 39 114.5 39V41ZM123.543 35.2961C122.934 36.7663 121.766 37.9343 120.296 38.5433L121.061 40.391C123.022 39.5791 124.579 38.0217 125.391 36.0615L123.543 35.2961ZM114.5 1C116.144 1 117.328 1.00054 118.262 1.06429C119.187 1.12742 119.795 1.24918 120.296 1.45672L121.061 -0.391036C120.276 -0.716341 119.425 -0.860996 118.398 -0.931075C117.38 -1.00054 116.117 -1 114.5 -1V1ZM126 10.5C126 8.88289 126.001 7.61997 125.931 6.60184C125.861 5.57473 125.716 4.72389 125.391 3.93853L123.543 4.7039C123.751 5.20494 123.873 5.8127 123.936 6.73798C123.999 7.67225 124 8.85552 124 10.5H126ZM120.296 1.45672C121.766 2.06569 122.934 3.23373 123.543 4.7039L125.391 3.93853C124.579 1.97831 123.022 0.420915 121.061 -0.391036L120.296 1.45672ZM10.5 -1C8.88289 -1 7.61997 -1.00054 6.60184 -0.931075C5.57473 -0.860996 4.72389 -0.716341 3.93853 -0.391036L4.7039 1.45672C5.20494 1.24918 5.8127 1.12742 6.73798 1.06429C7.67225 1.00054 8.85552 1 10.5 1V-1ZM1 10.5C1 8.85552 1.00054 7.67225 1.06429 6.73798C1.12742 5.8127 1.24918 5.20494 1.45672 4.7039L-0.391036 3.93853C-0.716341 4.72389 -0.860996 5.57473 -0.931075 6.60184C-1.00054 7.61997 -1 8.88289 -1 10.5H1ZM3.93853 -0.391036C1.97831 0.420915 0.420915 1.97831 -0.391036 3.93853L1.45672 4.7039C2.06569 3.23373 3.23373 2.06569 4.7039 1.45672L3.93853 -0.391036Z" fill="#A6A6A6"/>
</svg>
