<?xml version="1.0" encoding="UTF-8" standalone="no"?>
<!DOCTYPE svg PUBLIC "-//W3C//DTD SVG 1.1//EN" "http://www.w3.org/Graphics/SVG/1.1/DTD/svg11.dtd">
<svg version="1.1" xmlns="http://www.w3.org/2000/svg" xmlns:xlink="http://www.w3.org/1999/xlink" preserveAspectRatio="xMidYMid meet" viewBox="0 0 675 750" width="675" height="750"><defs><path d="M268.47 34.68C269.11 37.55 272.3 51.91 278.04 77.76C259.09 82.1 248.56 84.51 246.45 85C150.02 107.16 89.48 135.92 50.68 177.94C32.93 197.05 18.57 221.46 13.71 240.4C9.55 256.76 9.55 265.46 13.49 281.53C17.83 298.87 22.98 306.13 37.91 316.02C68.4 336.21 122.16 338.36 233.36 323.93C242.09 322.71 273.65 316.7 303.38 310.39C361.31 298.22 373.95 294.84 431.67 275.63C442.87 271.86 456.14 267.53 461.03 266.13C466.04 264.71 472.31 262.75 475.11 261.78C489.03 257.32 522 250.21 535.2 248.89C567.45 245.61 590 251.5 598.15 265.49C602.51 272.9 605.3 287.3 604.28 297.71C602.12 318.55 591.52 329.96 577.08 327.17C568.84 325.45 567.94 323.72 571.05 315.61C574.61 306.32 575.52 295.39 573.15 289.75C570.96 284.34 562.37 278.88 557.54 279.86C552.96 280.79 548.11 285.04 546.79 289.25C545.09 294.9 550.29 313.16 555.25 319.5C555.52 319.83 556.84 321.46 559.24 324.4C557.05 326.48 555.83 327.64 555.59 327.87C543.33 339.2 525.6 337.63 498.34 322.62C478.89 311.88 471.22 309.63 460.64 311.78C446.92 314.57 438.16 320.97 428.97 334.67C428.56 335.27 426.54 338.27 422.9 343.66C415.31 341.61 411.08 340.47 410.24 340.25C390.25 334.92 378.9 334.64 358.13 338.86C342.33 342.07 339.63 342.89 331.65 347.77C331.06 348.13 328.11 349.91 322.8 353.11C318.74 351.97 316.48 351.34 316.03 351.22C304.51 348.11 292.83 348.18 280.18 351.56C265.24 355.68 243.92 367.9 229.06 381.12C228.31 381.78 224.58 385.08 217.87 391.01C213.39 387.84 210.9 386.08 210.4 385.73C199.74 378.1 190.77 376.11 178.62 378.58C170 380.33 167.88 381.3 162.8 385.74C156.36 391.53 153.88 395.44 145.29 414.05C137.88 430.52 132.72 435.92 122.01 438.77C114.93 440.75 112.87 440.63 106.48 438.66C98.21 436.12 92.76 432.06 78.58 417.8C68.12 407.14 58.53 400.79 52.91 400.57C43.15 400.11 34.27 410.62 33.63 423.53C33.11 433.02 40.11 465.47 48.34 491.96C51.93 503.61 55.5 516.49 56.35 520.67C56.45 521.17 56.96 523.7 57.89 528.24C54.52 528.93 52.64 529.31 52.27 529.38C38.81 532.12 29.91 544.54 32.43 556.95C34.1 565.18 36.73 568.72 42.33 570.85C48.92 573.18 54.23 571.84 59.91 566.33C65.46 560.85 67.61 552.66 66.52 540.64C66.48 540.08 66.23 537.32 65.79 532.35C69.17 532.07 71.04 531.92 71.41 531.89C87.59 530.51 120.28 533.39 142.86 538.06C160.46 541.69 172.16 545.71 191.4 554.72C217.4 566.85 241.42 573.27 271.65 576.11C293.14 578.13 308.57 577.04 330.25 571.96C347.65 567.88 350.57 566.88 360.91 560.83C370.25 555.26 372.65 554.37 374.75 555.3C376.11 555.98 380.69 558.45 384.96 560.71C404.08 571.11 417.7 573.24 426.23 567.02C431.09 563.45 431.89 562.06 441.11 539.79C444.45 531.49 449.81 520.34 452.96 515.07C458.96 505.14 472.41 488.95 475.28 488.36C476.06 488.21 476.74 487.52 476.61 486.87C476.16 484.65 507.62 461.39 523.96 452.09C547.11 438.82 558.44 434.34 575.43 431.57C590.58 429.17 599.76 430.17 611.1 435.75C624.97 442.46 630.4 456.45 624.08 468.89C617.09 482.69 594.12 502.18 564.21 519.68C555.44 524.73 548.03 529.09 547.38 529.22C546.88 529.46 543.67 531.06 540.22 532.85C533.85 536.32 509.31 547.43 501.74 550.32C462.1 565.45 428.87 574.65 392.31 580.85C363.1 585.69 335.11 589.2 310.72 591.02C304.82 591.41 297.58 591.92 294.65 592.25C264.77 594.5 212.25 595.1 182.65 593.36C172.46 592.71 163.12 592.3 162.02 592.25C160.79 592.23 149.34 591.42 136.5 590.49C89.02 587.08 73.62 589.66 64.46 602.81C59.18 610.28 57.94 617.6 59.78 630.01C65.07 665.4 88.36 675.63 152.95 671.49C202.22 668.28 296.47 651.46 348.51 636.4C354.93 634.55 364.73 631.88 370.37 630.19C396.1 622.92 430.05 610.59 458.38 598.03C474.46 590.82 480.54 587.96 496.57 579.8C500.38 577.81 505.34 575.44 507.3 574.36C512.99 571.57 522.28 566.42 548.96 551.75C594.56 526.44 607.95 520.05 620.99 517.26C642.25 512.81 657.35 525.52 660.56 550.72C662.09 563.6 661.17 578.48 657.88 590.44C654.73 602.37 642.16 620.84 631.44 629.68C616.96 641.46 586.39 657.05 562.99 664.39C558.4 665.87 553.56 667.53 552.18 668.08C548.92 669.43 508.27 681.62 504.72 682.21C503.28 682.5 484.08 687.08 461.9 692.4C363.91 716.25 215.17 739.38 157.31 739.84C137.5 740.06 109.72 737.26 106.63 734.76C106.16 734.45 103.23 733.41 100.06 732.56C91.43 730.23 78.83 721.09 72.37 712.75C60.72 697.57 55.02 681.58 47.04 642.26C42.21 618.49 41.12 614.49 39.27 614.05C38.01 613.9 36.83 614.14 36.39 614.63C35.17 616.65 43.98 662.06 48.63 677.58C68.54 743.45 104.08 755.69 230.93 740.67C275.28 735.33 298.28 731.35 386.67 713.8C484.89 694.4 508.27 688.97 547.08 676.46C593.41 661.48 611.3 653.08 633.94 635.29C652.95 620.41 663.51 602.08 667.39 576.94C668.74 567.55 668.53 565.15 665 547.09C661.33 529.07 660.65 527.03 656.87 522.49C646.77 510.26 636.25 508.04 614.78 513.49C600.15 517.14 588.66 522.2 564.7 535.5C558.7 538.76 544.89 546.46 534.14 552.45C440.33 604.28 381.62 625.32 264.62 648.67C206.3 660.25 163.89 665.73 129.38 665.94C93.64 666.12 76.23 658.78 68.34 640.66C61.84 625.38 64.53 609.87 75.12 601.05C76.53 599.95 82.41 598.08 88.42 596.86C99.16 594.81 105.27 594.8 146.82 597.78C206.68 601.81 250.1 601.97 301.99 598.24C345.56 595.1 367.64 591.98 413.7 582.35C463.03 572.06 482.62 566.04 520.95 549.14C548.18 537.22 566.38 527 588.89 511.27C624.16 486.69 637.81 467.46 631.95 450.02C630.87 446.7 628.63 442.39 626.98 440.28C619.63 430.89 602.09 423.57 586.43 423.49C571.32 423.43 548.13 431.13 525.63 443.59C483.32 467.01 454.98 494.25 440.49 525.36C438.05 530.75 435.24 536.35 434.46 537.87C433.65 539.26 433.16 540.85 433.24 541.25C433.32 541.64 431.74 545.9 429.71 550.67C425.9 559.33 422.43 563.03 416.94 564.14C413.29 564.89 401.2 561.63 395.36 558.33C392.9 556.92 390.51 555.91 390.12 555.99C389.7 555.94 386.56 554.54 383.34 552.74C382.94 552.51 380.94 551.38 377.35 549.33C379.74 547.46 381.07 546.42 381.34 546.21C390.93 538.55 403.23 525.44 432.02 491.71C450.26 470.32 466.55 452.05 467.46 451.87C467.98 451.76 469.1 450.58 469.91 449.19C470.87 447.91 476.66 441.56 482.99 435.24C483.75 434.47 487.55 430.62 494.38 423.68C503.21 420.91 508.11 419.37 509.09 419.06C537.35 410.19 557.47 398.08 566.76 384.22C572.31 376.03 573.57 370.19 570.73 366.28C564.12 357.15 543.42 369.1 506.19 403.46C505.18 404.4 500.1 409.11 490.97 417.57C476.21 420.08 468.02 421.47 466.38 421.75C438 426.7 423.28 427.92 368.39 429.55C290.57 432.16 279.69 432.87 255.6 436.81C222.99 442.34 214.06 446.6 215.97 456.01C216.9 460.58 222.59 465.14 236.33 472.55C277.86 494.86 282.79 497.67 320.58 521.69C332.16 529.13 347.14 538.6 353.56 542.74C367.26 551.25 367.31 550.83 351.33 558.56C337.11 565.53 321.27 569.29 303.26 570.36C287.24 571.17 261.3 569.36 248.04 566.35C224.26 561.11 207.54 555.8 201.3 551.9C200.07 551.19 197.48 549.82 195.41 549.01C193.32 548.08 188.71 546.16 185.12 544.57C156.28 531.79 101.5 522.65 72.73 525.64C72.17 525.7 69.37 525.99 64.34 526.53C63.65 523.15 63.27 521.28 63.2 520.91C62.59 517.9 58.18 502.2 53.27 486.06C45.05 458.35 39.96 434.62 40.22 425.19C40.49 417.79 43.97 409.46 46.32 410.34C47.05 410.6 47.5 410.11 47.36 409.45C46.75 406.45 53.76 406.79 59.16 409.91C62.38 411.71 69.8 418.09 75.62 423.98C94.92 443.32 106.67 448.96 121.82 445.88C135.54 443.1 142.68 435.39 153.78 411.65C161.36 395.41 165.35 390.25 173.67 386.38C184.06 381.28 200.7 384.16 209.04 392.4C209.32 392.67 210.73 394.01 213.26 396.44C210.59 400.98 209.11 403.5 208.81 404.01C206.39 408.17 204.32 413.35 204.37 415.65C204.17 427.39 218.67 432.47 225.02 422.89C227.52 419.11 227.47 418.17 225.11 407.91C224.93 407.17 224.05 403.5 222.46 396.88C224.71 394.3 225.96 392.87 226.21 392.58C232.34 385.9 247.28 374.43 259.58 367.31C278.58 356.37 298.51 352.73 314.68 357.34C314.96 357.42 316.36 357.82 318.87 358.53C317.33 360.97 316.47 362.32 316.29 362.59C312.5 368.67 311.32 376.25 313.01 384.61C315.51 396.89 322.61 402.39 333.19 400.24C343.25 398.2 349.26 388.95 347.17 378.63C345.92 372.49 342.64 367.71 335.09 361.36C330.97 357.84 330.34 356.74 331.72 355.51C335.92 351.39 344.28 348.34 359.43 345.26C379.03 341.28 390.38 341.56 407.51 346.24C418.16 349.11 419.52 349.79 419.72 352.74C419.83 354.62 420.87 361.76 422.25 368.55C424.11 379.05 425.06 381.72 428.47 385.79C440.01 399.76 453.06 399.7 456.57 385.52C459.72 372.91 451.79 359.96 434.77 349.82C434.37 349.59 432.42 348.45 428.9 346.39C431.88 341.78 433.54 339.22 433.87 338.71C436.55 334.49 441.89 328.65 445.52 325.74C461.14 313.58 470.61 313.97 494.8 327.97C509 336.24 519.89 340.29 530.43 341.27C542.09 342.44 550.08 340.27 558.66 333.63C564.66 329.02 564.9 328.83 567.99 330.65C573.1 333.7 581.23 334.9 587.24 333.68C598.84 331.19 607.72 318.64 610.33 300.7C611.38 293.14 611.18 288.83 609.04 278.24C606.73 266.88 605.83 264.48 601.84 259.57C596.36 252.66 586.85 246.7 577.04 243.93C556.45 238.32 513.61 243.08 474.46 255.24C471.27 256.3 462.44 259.05 454.61 261.32C446.93 263.69 438.75 266.31 436.72 266.99C383.1 285.63 357.32 292.64 299.44 304.39C234.25 317.63 211.02 321.12 166.27 324.5C102.53 329.42 65.39 325.4 42.26 311.32C31.42 304.82 25.2 296.97 20.67 284.7C17.14 275.35 15.49 259.22 17.68 255.24C18.28 254.17 18.38 253.33 17.86 253.44C16.42 253.73 20.48 238.21 24.35 229.13C35.59 202.09 60.78 172.76 89.9 152.7C128.54 125.95 188.65 103.13 257.63 89.12C259.1 88.82 266.46 87.33 279.71 84.64C280.75 92.18 281.33 96.37 281.44 97.2C283.15 110.32 282.29 117.44 278.61 119.41C277.38 120.07 265.6 123 252.38 126.23C207.05 136.8 197.78 139.36 173.1 147.77C112.27 168.43 69.78 202.36 60.5 237.7C55.56 256.25 59.94 268.42 75.21 278.65C100.7 295.65 161.59 298.11 259.7 286.21C299.53 281.38 508.31 237.76 546.92 226.25C576.02 217.48 587.37 209.73 592.6 194.66C595.82 185.71 592.08 168.65 584.52 156.17C565.97 125.8 530.38 98.61 486.83 81.75C438.51 62.86 393.1 60.25 314.8 71.93C298.42 74.31 284.62 76.02 284.15 75.71C283.55 75.42 251.46 -43.07 268.47 34.68ZM460.47 79.89C507.91 93.11 549.06 118.89 572.05 149.73C581.03 161.78 584.87 169.3 586.7 178.31C590.52 198.48 580.91 208.73 548.08 219.21C512.66 230.35 324.81 270.54 276.25 277.27C117.23 299.36 46.73 284.44 68.44 233.23C76.59 214.44 95.61 194.25 119.65 179.31C147.65 161.78 177.32 151.13 241.97 135.28C268.67 128.77 282.44 124.89 284.16 123.31C288.46 119.72 289.61 110.64 287.77 96.19C287.66 95.34 287.1 91.05 286.11 83.33C292.53 82.03 296.1 81.3 296.82 81.16C302.57 79.99 316.02 77.94 326.61 76.47C383.84 68.93 425.15 70.06 460.47 79.89ZM568.14 294.57C568.99 298.75 565.56 315.37 563.37 317.31C559.72 320.77 550.34 295.33 553.44 289.81C555.28 286.17 560.19 285.58 564.15 288.31C565.91 289.59 567.69 292.35 568.14 294.57ZM341.77 382.85C341.4 391.09 329.73 397.27 323.34 392.58C318.54 389.07 316.97 378.64 319.95 369.87C321.22 366.08 323.15 362.83 324.06 362.64C324.97 362.46 327.51 363.58 329.87 365.14C335.74 369.25 341.96 378.46 341.77 382.85ZM450.17 376.75C451.55 383.55 449.63 388.83 445.45 389.68C439.18 390.96 430.44 380.08 428 368.06C426.32 359.83 426.26 354.13 427.69 353.84C428.22 353.73 431.78 355.87 435.86 358.57C445.03 364.87 448.71 369.57 450.17 376.75ZM549.53 392.48C539.85 399.76 525.65 406.86 513.87 410.47C513.33 410.64 510.64 411.45 505.8 412.93C508.52 410.25 510.04 408.77 510.34 408.47C535.52 383.77 564.64 364.39 566.04 371.31C566.76 374.84 558.01 386 549.53 392.48ZM324.44 437.52C418.94 434.65 434.65 433.64 463.94 429.18C465.16 429 471.23 428.08 482.16 426.44C473.63 435.51 468.9 440.55 467.95 441.56C460.11 449.82 441.95 470.24 427.77 486.86C402.14 516.69 387.86 532.1 377.22 541.33C376.86 541.66 375.06 543.3 371.82 546.24C355.35 535.87 346.2 530.11 344.37 528.96C293.69 497.09 276.01 486.39 250.66 472.77C223.45 458.03 220.26 455.68 222.76 452.59C226.56 447.87 251.2 442.6 283.4 439.73C293.31 438.94 311.86 437.9 324.44 437.52ZM43.25 564C38.06 561.24 36.18 551.97 39.77 546.21C42.74 541.39 45.6 538.76 50.7 536.37C57.77 533.03 58.9 533.21 59.74 537.39C63.46 555.68 54.66 569.98 43.25 564Z" id="c4xnfX4y9t"></path></defs><g><g><use xlink:href="#c4xnfX4y9t" opacity="1" fill="#000000" fill-opacity="1"></use><g><use xlink:href="#c4xnfX4y9t" opacity="1" fill-opacity="0" stroke="#000000" stroke-width="1" stroke-opacity="0"></use></g></g></g></svg>