<?xml version="1.0" encoding="UTF-8" standalone="no"?>
<!DOCTYPE svg PUBLIC "-//W3C//DTD SVG 1.1//EN" "http://www.w3.org/Graphics/SVG/1.1/DTD/svg11.dtd">
<svg version="1.1" xmlns="http://www.w3.org/2000/svg" xmlns:xlink="http://www.w3.org/1999/xlink" preserveAspectRatio="xMidYMid meet" viewBox="0 0 1500 1500" width="1500" height="1500"><defs><path d="M910.04 629.74C881.61 667.69 859.99 702.12 836.82 746.43C821.25 776.2 821 776.67 819.55 787.5C818.73 793.39 818.17 801.07 818.41 804.36C819.01 810.69 823.6 823.78 825.73 824.89C828.21 826.19 831.19 836.02 830.8 841.08C830.57 843.82 829.49 851.08 828.48 857.32C828.37 858.07 827.82 861.79 826.84 868.5C820.81 873.65 817.46 876.51 816.79 877.09C809.52 883.22 804.77 888.56 799.86 895.92C785.45 917.73 772.78 935.62 761.1 951.33C719.72 1006.28 705.65 1026 694.75 1044.53C694.53 1044.92 693.42 1046.85 691.43 1050.32C689.3 1043.51 688.11 1039.74 687.88 1038.98C686.02 1032.74 684.93 1027.36 685.65 1026.83C686.43 1026.49 686.44 1025.89 685.85 1025.58C685.26 1025.27 685.86 1018.67 687.26 1010.82C688.71 1003.15 690.73 990.66 691.76 983.23C694.63 963.06 709.06 874.76 714.92 841.41C717.71 825.42 720.38 809.96 720.91 806.93C723.53 791 723.91 789.99 727.46 788.09C729.33 787.11 731.91 785.9 733.23 785.39C739.53 783.42 759.67 771.68 760.9 769.31C761.64 767.9 764.39 754.89 766.91 740.56C769.44 726.23 771.82 713.33 772.15 711.85C772.59 710.43 774.55 700.92 776.41 690.76C778.38 680.65 780.62 668.89 781.42 664.78C788.02 633.18 795.33 588.7 794.95 583.39C794.7 580.7 793.62 577.88 792.43 577.26C789.48 575.71 784.38 577.71 782.71 580.9C780.48 585.15 773.95 610.02 760.73 664.35C748.41 715.23 745.87 723.83 743.53 721.41C741.77 719.59 743.66 710.79 761.82 633.77C774.31 580.27 774.65 577.89 770.62 573.22C768.52 570.92 767.21 570.54 763.92 571.07C760.15 571.66 759.24 572.54 756.57 578.21C755.02 581.76 749.53 601.76 744.43 622.72C729.54 683.7 727.36 692.19 723.57 703.75C721.67 709.68 719.55 714.89 719.07 715.23C716.72 716.56 716.54 713.16 718.65 702.23C719.78 696.04 721.04 689.03 721.32 686.77C721.78 684.45 722.95 679.05 724.04 674.65C732.72 640.22 745.73 584.28 746.38 578.15C747.69 568.15 746.1 564.01 741.27 563.74C732.93 563.29 731.63 566.07 716.97 614.53C677.76 743.29 676.61 747.8 678.61 755.47C679.06 757.21 683.25 762.71 687.93 767.86C692.55 772.84 696.8 778.82 697.3 780.74C697.85 783.13 695.04 800.02 690.07 823.9C685.56 845.47 681.63 864.78 681.36 866.74C680.96 868.65 680.23 872.63 679.58 875.6C678.93 878.57 675.6 894.73 672.07 911.54C666.38 938.81 661.36 959.36 656.76 972.75C649.64 993.55 637.95 1023.1 636.89 1022.54C636.53 1022.36 631.54 1018.09 625.67 1012.92C603.02 992.94 598.54 990 549.99 964C513.25 944.19 500.02 937.57 483.08 930.82C431.58 909.9 364.29 888.1 261.05 859.08C246.98 855.18 224.32 848.75 210.55 844.86C181.83 836.76 117.41 817.81 110.78 815.54C108.34 814.72 97.67 811.25 87 807.78C70.64 802.53 36.75 790.22 10.16 779.77C3.17 777.02 -1.07 777.66 0.24 781.2C0.86 782.89 26.78 793.74 50.07 802.15C85.68 814.91 144.75 833.16 204.85 850C228.23 856.51 243.72 860.85 260.63 865.63C282.52 871.81 345.58 890.2 350.09 891.65C352.28 892.35 365.62 896.47 379.8 901.02C443.84 920.98 483.81 936.62 529.2 959.15C575.66 982.24 594.7 994.46 622.93 1019.31C623.66 1019.96 627.32 1023.23 633.9 1029.11C631.66 1034.26 630.42 1037.12 630.17 1037.69C628.11 1042.48 622.95 1054.37 618.77 1064.08C600.9 1105.74 597.49 1129.23 605.75 1153.42C610.23 1166.44 615.85 1175.55 621.05 1178.27C625.3 1180.49 638.39 1178.76 645.14 1175.07C654.47 1170.17 658.62 1164.82 668.7 1145.26C677.54 1128.37 678.04 1126.83 680.07 1113.74C682.64 1097.33 681.64 1090.04 675.04 1075.9C670.15 1065.67 647.56 1032.64 644.13 1030.85C641.89 1029.67 642.02 1028.84 650.89 1006.99C666.07 969.34 668.5 960.38 684.32 884.09C698.38 816.06 701.4 800.79 702.71 791.09C704.03 781.1 701.04 771.56 694.95 765.67C689.56 760.44 683.03 752.21 682.88 750.48C682.89 749.88 687.22 734.99 692.49 717.43C697.82 700.06 704.41 678.53 707.14 669.57C709.75 660.56 713.43 648.34 715.39 642.29C719.88 627.94 728.65 598.82 732.33 586.6C735.52 575.33 737.93 570.42 740.14 570.22C742.47 570.08 741.88 572.94 728.71 627.74C709.1 709.27 708.03 715.63 714.33 719.68C724.65 726.43 727.39 719.74 748.99 631.27C760.78 583.12 762.43 577.37 764.76 577.23C767.57 577.04 767.31 581.57 762.98 599.62C733.56 725.22 733.7 724.09 740.08 727.43C744.92 729.96 748.75 729.25 750.73 725.47C753.57 720.04 762.16 687.51 777.01 624.87C781.92 604.56 787.02 586.46 788.41 585.24C789.81 584.01 784.75 612.96 775.8 658.84C768.84 693.72 765.54 711.25 759.81 744.07C759.53 745.6 758.14 753.25 755.64 767.01C752.45 768.78 750.69 769.76 750.33 769.96C747.38 771.57 744.55 772.95 743.9 773.06C743.24 773.17 737.34 776.1 730.83 779.62C720.6 785.1 718.6 786.61 717.58 789.99C714.09 801.86 680.96 1006.17 680.02 1021.48C679.32 1034.05 680.45 1040.51 685.04 1050.74C688.2 1057.35 688.57 1059.81 687.24 1063.78C682.2 1078.89 684.26 1096.52 692.46 1107.89C697.64 1114.96 702.95 1118.34 709.27 1118.33C714.34 1118.42 731.35 1111.22 742.02 1104.62C746 1102.18 757.3 1097.56 766.96 1094.34C776.74 1091.17 785.75 1087.46 787.09 1086.05C789.89 1083 829.98 1043.18 840.24 1033.35C844.06 1029.48 855.24 1018.48 865.02 1008.69C874.8 998.91 886.03 987.79 889.92 984.1C893.86 980.3 903.09 971.28 910.38 963.96C917.67 956.64 927.03 947.38 931.1 943.34C947.13 927.65 956.39 916.85 958.94 910.81C961.44 904.59 961.07 895.82 957.69 878.11C954.81 862.61 954.71 861.65 954.72 854.44C954.89 838.87 960.21 824.95 971.31 811.5C988.76 790.23 1024.05 764.75 1051.51 753.38C1073.14 744.53 1101.58 738.79 1113.77 740.8C1120.01 741.81 1126.67 746.35 1128.96 751.16C1132.81 759.34 1133.68 783.57 1130.34 796.57C1129.63 799.66 1128.73 803.4 1128.4 804.88C1125.32 819.97 1122.32 827.43 1109.1 852.72C1093.89 882.08 1088.32 889.85 1071.83 905C1063.39 912.78 1049.88 921.36 1044.49 922.45C1042.1 923 1042.59 922.36 1047.44 917.67C1067.34 899.19 1084.73 874.28 1098.02 845.42C1121.3 795.15 1120.97 760.97 1097.28 758.51C1074.37 756.01 1038.24 768.41 1026.7 782.69C1022.43 787.98 1027.56 788.25 1036.72 783.11C1052.92 774.28 1074.5 771.58 1087.34 776.94C1087.77 777.12 1089.9 778.04 1093.73 779.68C1093.11 784.32 1092.77 786.9 1092.7 787.41C1091.43 798.18 1086.56 813.24 1078.46 832.48C1062.62 870.24 1034.77 905.93 1011.28 918.92C1006.82 921.41 1004.79 921.55 997.01 919.74C985.01 917.07 974.99 916.95 970.06 919.48C962.89 923.11 958.33 928.39 880.91 1020.02C840.8 1067.65 833.79 1075.87 832.39 1077.4C831.85 1077.87 829.77 1080.69 827.69 1083.52C825.49 1086.28 822.88 1088.97 821.56 1089.49C820.36 1090.06 808.51 1092.29 795.1 1094.61C755.14 1101.4 747.34 1104.24 726.66 1119.9C707.73 1133.93 695.66 1148.38 687.34 1166.6C673.92 1195.99 685.33 1217.61 711.6 1213.14C726.25 1210.72 747.35 1198.58 761.26 1184.64C766.6 1179.31 766.78 1179.26 774.27 1180.77C778.43 1181.74 792.79 1182.47 806.21 1182.42C834.29 1182.52 840.9 1183.11 858.24 1187.37C871.25 1190.41 874.56 1191.54 892.39 1198.31C905.36 1203.14 945.24 1224.14 964.99 1236.43C981.62 1246.63 1018.25 1272.11 1036.85 1286.05C1040.73 1288.98 1045.38 1292.46 1047.08 1293.81C1052.2 1297.54 1091.85 1327.6 1109.02 1340.8C1161.96 1381.42 1210.4 1416.54 1228.45 1427.48C1234.76 1431.24 1243.2 1436.4 1247.33 1438.86C1261.48 1447.77 1324.48 1475.75 1353.51 1486.12C1369.51 1491.78 1372.06 1492.66 1384.4 1496.11C1400.25 1500.63 1404.41 1501.01 1405.83 1498.29C1406.51 1496.99 1406.77 1495.92 1406.54 1495.8C1406.3 1495.67 1400.54 1494.02 1393.9 1492.05C1387.08 1490.13 1379.31 1487.73 1376.52 1486.72C1373.56 1485.77 1369.82 1484.57 1368.16 1484C1363.95 1482.85 1328.12 1469.38 1319.06 1465.69C1315.33 1464.2 1299.71 1457.23 1284.39 1450.27C1248.49 1433.75 1233.45 1424.53 1181.77 1387.27C1161.64 1372.83 1158.93 1370.81 1115.88 1337.76C1054.06 1290.24 1003.16 1252.93 978.75 1237.45C969.85 1231.75 948.29 1220.02 923.71 1207.47C887.79 1189.28 881.81 1186.6 870.36 1183.47C850.18 1178.03 838.28 1176.62 808.46 1176.38C779.13 1176.08 770.44 1174.85 773.84 1171.51C781.5 1163.78 807.63 1127.04 811 1118.87C815.8 1107.69 804.97 1109.7 776.36 1125.28C747.08 1141.27 729.82 1155.86 733.23 1161.71C733.87 1162.79 740.05 1166.78 747.03 1170.43C747.86 1170.86 752.03 1173.05 759.55 1176.98C756.02 1180.28 754.06 1182.11 753.66 1182.48C726.36 1208.22 697 1215.44 689.98 1198.37C682.16 1179.09 699.31 1148.03 730.62 1124.98C751.54 1109.44 755.98 1107.85 792.47 1101.66C794.67 1101.29 805.66 1099.47 825.43 1096.18C848.62 1068.58 861.51 1053.25 864.08 1050.19C885.24 1024.99 907.97 998.21 914.25 990.81C920.71 983.35 935.33 966.02 946.86 952.34C963.44 932.42 968.73 926.91 972.4 925.37C977.14 923.49 983.71 923.01 987.86 924.28C992.78 925.8 1002.59 927.47 1006.35 927.48C1013.69 927.55 1036.93 908.71 1052.23 890.39C1058.15 883.4 1062.33 876.26 1074.63 852.75C1090.45 822.2 1096.02 808.11 1098.71 791.16C1101.19 776.06 1097.58 771.46 1080.17 768.22C1079.59 768.12 1076.69 767.61 1071.49 766.69C1074.54 766.03 1076.24 765.66 1076.58 765.59C1084.24 763.88 1098.43 764.38 1102.21 766.36C1111.42 771.18 1110.36 796.5 1099.86 826.07C1098.11 830.87 1092.33 843.35 1086.9 853.74C1071.26 883.64 1054.54 904.68 1034.16 920.06C1022.55 928.73 1020.29 931.91 1024.98 932.71C1037.46 935.03 1062.01 923.19 1079.85 906.34C1103.71 883.45 1128.9 836.44 1135.98 801.32C1139.13 785.82 1139.76 767.64 1137.32 757.33C1135.33 748.77 1129.76 740.14 1124.68 737.48C1111.09 730.38 1075.09 735.62 1046.71 748.76C1012.54 764.6 979.1 789.99 962.1 813C948.83 831.19 946.24 848.79 951.82 883.01C955.85 907.24 955.38 910.15 944.75 920.69C940.2 925.08 926.47 938.67 914.2 950.91C901.93 963.15 889.42 975.56 886.26 978.43C883.23 981.35 873.45 991.14 864.4 1000.09C855.47 1009.12 845.57 1018.84 842.53 1021.76C839.5 1024.69 828.26 1035.81 817.63 1046.36C777.85 1085.89 782.63 1082.22 764.32 1088.44C755.32 1091.56 741.74 1097.39 734.09 1101.67C716.44 1111.25 706.91 1113.93 703.09 1110.58C697.28 1105.59 691.92 1095.41 690.98 1088C690.22 1080.53 691.61 1066.66 693.34 1066.21C693.88 1066.05 695.23 1067.2 696.34 1068.83C697.55 1070.82 702.98 1074.26 711.19 1078.71C723.59 1085.19 724.78 1085.51 734.14 1085.74C745.58 1086.01 755.78 1082.62 761.38 1076.52C766.68 1070.71 774.68 1050.22 785.91 1013.21C788.51 1004.79 803.31 961.83 805.88 955.19C807.44 951.05 809.32 946.31 809.89 944.65C810.39 943.11 814.54 931.73 819.17 919.71C823.74 907.51 828.48 892.99 829.78 887.34C831.07 881.7 832.49 875.82 832.82 874.34C833.21 872.73 837.22 868.51 841.82 864.9C842.37 864.46 845.13 862.24 850.11 858.25C871.22 816.84 882.96 793.84 885.3 789.24C904.66 751.36 938.18 685.83 959.76 643.71C1002.43 560.39 1008.63 547.39 1006.27 546.15C1005.32 545.66 1001.55 546.54 997.77 548.02C972.65 558.06 943.66 585.03 910.04 629.74ZM879.46 786.03C847.66 848.55 844.64 854.04 840.28 857.77C837.61 859.99 835.32 861.2 835.16 860.37C834.94 859.65 835.43 855.54 836.1 851.38C838.76 836.52 836.77 827.95 827.93 815.5C822.46 807.83 823.92 789.79 831.39 769.47C835.22 759.28 838.98 752.37 858.3 720.04C862.35 713.44 865.93 707.18 866.42 706.23C866.91 705.29 874.22 693.91 882.51 680.94C902.45 650 917.44 629.4 937.92 605.2C947.68 593.45 963.34 578.17 974.42 569.37C980.53 564.59 996.93 554.51 997.1 555.35C997.15 555.53 978.53 592.28 955.59 637.01C932.65 681.74 898.5 748.74 879.46 786.03ZM818.14 904.43C810.01 924.85 808.63 928.64 801.85 947.07C792.05 974.14 784.62 996.13 772.92 1032.3C766.98 1050.56 761.57 1066.39 760.77 1067.33C759.92 1068.38 758.15 1070.62 756.75 1072.14C752.73 1076.96 740.25 1080.67 731.33 1079.61C720.62 1078.22 708.57 1071.92 701.38 1063.8C701.02 1063.4 699.25 1061.42 696.06 1057.86C699.29 1051.51 701.08 1047.98 701.44 1047.28C708.25 1033.69 720.13 1016.43 750.32 976.54C785.1 930.48 801.38 907.4 807.68 895.65C809.78 891.63 823.69 877.99 824.99 878.67C825.1 878.73 824.75 881.7 824.21 885.33C823.6 889.08 820.82 897.56 818.14 904.43ZM765.57 1170.65C762.15 1171.72 742.57 1163.13 740.54 1159.81C739.79 1158.37 740.53 1157.25 744.11 1153.85C751.75 1146.72 780.15 1129.52 796.75 1121.95C804.39 1118.58 804 1120.18 794.02 1134.67C786.54 1145.5 767.01 1170.2 765.57 1170.65ZM670.64 1081.72C674.88 1090.87 675.66 1093.98 675.05 1101.19C673.31 1124.65 662.68 1151.59 650.48 1163.42C643.62 1169.91 629.22 1175.02 624.49 1172.55C616.57 1168.41 607.21 1145.45 607.3 1130.61C607.55 1114.03 614.82 1088.04 626.5 1062.25C629.73 1055.21 633.65 1046.28 635.39 1042.38C636.95 1038.53 638.8 1035.58 639.39 1035.89C639.86 1036.14 643.37 1040.08 647.22 1044.5C655.8 1054.85 664.15 1067.95 670.64 1081.72Z" id="c6WAVnPEkL"></path></defs><g><g><use xlink:href="#c6WAVnPEkL" opacity="1" fill="#000000" fill-opacity="1"></use><g><use xlink:href="#c6WAVnPEkL" opacity="1" fill-opacity="0" stroke="#000000" stroke-width="1" stroke-opacity="0"></use></g></g></g></svg>