<svg width="125" height="40" viewBox="0 0 125 40" fill="none" xmlns="http://www.w3.org/2000/svg">
<path d="M0 5C0 2.23858 2.23858 0 5 0H120C122.761 0 125 2.23858 125 5V35C125 37.7614 122.761 40 120 40H5C2.23858 40 0 37.7614 0 35V5Z" fill="black"/>
<path d="M63.0889 21.7511C60.9111 21.7511 59.1361 23.5401 59.1361 26.0041C59.1361 28.4531 60.9111 30.2571 63.0889 30.2571C65.2676 30.2571 67.0426 28.4531 67.0426 26.0041C67.0417 23.5401 65.2667 21.7511 63.0889 21.7511ZM63.0889 28.5831C61.8954 28.5831 60.8667 27.5201 60.8667 26.0051C60.8667 24.4741 61.8963 23.4271 63.0889 23.4271C64.2824 23.4271 65.3111 24.4741 65.3111 26.0051C65.3111 27.5191 64.2824 28.5831 63.0889 28.5831ZM54.4648 21.7511C52.287 21.7511 50.512 23.5401 50.512 26.0041C50.512 28.4531 52.287 30.2571 54.4648 30.2571C56.6435 30.2571 58.4185 28.4531 58.4185 26.0041C58.4185 23.5401 56.6435 21.7511 54.4648 21.7511ZM54.4648 28.5831C53.2713 28.5831 52.2426 27.5201 52.2426 26.0051C52.2426 24.4741 53.2722 23.4271 54.4648 23.4271C55.6583 23.4271 56.687 24.4741 56.687 26.0051C56.688 27.5191 55.6583 28.5831 54.4648 28.5831ZM44.2074 23.0571V24.8611H48.2056C48.0861 25.8761 47.7731 26.6171 47.2954 27.1321C46.7139 27.7601 45.8037 28.4531 44.2074 28.4531C41.7463 28.4531 39.8222 26.3101 39.8222 23.6521C39.8222 20.9941 41.7463 18.8511 44.2074 18.8511C45.5352 18.8511 46.5046 19.4151 47.2204 20.1401L48.3991 18.8671C47.3991 17.8361 46.0722 17.0471 44.2074 17.0471C40.8361 17.0471 38.0018 20.0111 38.0018 23.6521C38.0018 27.2931 40.8361 30.2571 44.2074 30.2571C46.0268 30.2571 47.4 29.6121 48.4731 28.4041C49.5768 27.2121 49.9204 25.5361 49.9204 24.1831C49.9204 23.7651 49.8907 23.3781 49.8306 23.0561H44.2074V23.0571ZM86.1593 24.4581C85.8315 23.5081 84.8315 21.7511 82.788 21.7511C80.7593 21.7511 79.0731 23.4751 79.0731 26.0041C79.0731 28.3881 80.7444 30.2571 82.9815 30.2571C84.7861 30.2571 85.8306 29.0651 86.2639 28.3721L84.9213 27.4051C84.4741 28.1141 83.862 28.5811 82.9815 28.5811C82.1019 28.5811 81.475 28.1461 81.0722 27.2921L86.338 24.9401L86.1593 24.4581ZM80.7889 25.8761C80.7444 24.2321 81.9676 23.3951 82.8481 23.3951C83.5343 23.3951 84.1157 23.7661 84.3102 24.2971L80.7889 25.8761ZM76.5083 30.0001H78.238V17.4991H76.5083V30.0001ZM73.6731 22.7021H73.6139C73.2259 22.2021 72.4796 21.7511 71.5407 21.7511C69.5713 21.7511 67.7667 23.6201 67.7667 26.0211C67.7667 28.4051 69.5713 30.2581 71.5407 30.2581C72.4806 30.2581 73.2259 29.8071 73.6139 29.2921H73.6731V29.9041C73.6731 31.5311 72.8676 32.4011 71.5704 32.4011C70.5111 32.4011 69.8546 31.5801 69.5861 30.8871L68.0796 31.5641C68.512 32.6911 69.6602 34.0771 71.5704 34.0771C73.5991 34.0771 75.3148 32.7881 75.3148 29.6461V22.0101H73.6741V22.7021H73.6731ZM71.6898 28.5831C70.4963 28.5831 69.4972 27.5031 69.4972 26.0211C69.4972 24.5221 70.4963 23.4271 71.6898 23.4271C72.8676 23.4271 73.7926 24.5221 73.7926 26.0211C73.7926 27.5031 72.8676 28.5831 71.6898 28.5831ZM94.2648 17.4991H90.125V30.0001H91.8518V25.2641H94.2639C96.1787 25.2641 98.062 23.7671 98.062 21.3821C98.062 18.9971 96.1796 17.4991 94.2648 17.4991ZM94.3093 23.5241H91.8518V19.2391H94.3093C95.6009 19.2391 96.3343 20.3941 96.3343 21.3821C96.3343 22.3501 95.6009 23.5241 94.3093 23.5241ZM104.987 21.7291C103.736 21.7291 102.441 22.3241 101.905 23.6431L103.438 24.3341C103.766 23.6431 104.377 23.4171 105.017 23.4171C105.91 23.4171 106.819 23.9961 106.833 25.0251V25.1541C106.52 24.9611 105.85 24.6721 105.031 24.6721C103.379 24.6721 101.695 25.6531 101.695 27.4861C101.695 29.1591 103.051 30.2361 104.569 30.2361C105.731 30.2361 106.371 29.6731 106.773 29.0131H106.832V29.9781H108.501V25.1851C108.502 22.9671 106.967 21.7291 104.987 21.7291ZM104.778 28.5801C104.213 28.5801 103.423 28.2741 103.423 27.5181C103.423 26.5531 104.406 26.1831 105.256 26.1831C106.014 26.1831 106.372 26.3601 106.833 26.6011C106.699 27.7601 105.776 28.5801 104.778 28.5801ZM114.577 22.0021L112.596 27.4221H112.537L110.481 22.0021H108.62L111.703 29.5771L109.945 33.7911H111.747L116.498 22.0021H114.577ZM99.0157 30.0001H100.743V17.4991H99.0157V30.0001Z" fill="white"/>
<path d="M43.9056 10.2429C43.9056 11.0809 43.676 11.7479 43.2158 12.2459C42.6936 12.8379 42.0121 13.1339 41.1751 13.1339C40.3732 13.1339 39.6908 12.8339 39.1306 12.2339C38.5695 11.6329 38.2889 10.8889 38.2889 10.0009C38.2889 9.11194 38.5695 8.36794 39.1306 7.76794C39.6908 7.16694 40.3732 6.86694 41.1751 6.86694C41.5732 6.86694 41.9538 6.95094 42.3149 7.11794C42.6769 7.28594 42.9667 7.50894 43.1834 7.78794L42.6954 8.31594C42.3278 7.84094 41.8213 7.60394 41.1741 7.60394C40.5889 7.60394 40.0834 7.82594 39.6565 8.26994C39.2297 8.71394 39.0167 9.29094 39.0167 9.99994C39.0167 10.7089 39.2297 11.2859 39.6565 11.7299C40.0834 12.1739 40.5889 12.3959 41.1741 12.3959C41.7945 12.3959 42.3121 12.1729 42.726 11.7259C42.9945 11.4349 43.1501 11.0299 43.1917 10.5109H41.1741V9.78994H43.8658C43.8936 9.94694 43.9056 10.0979 43.9056 10.2429Z" fill="white"/>
<path d="M48.1742 7.737H45.6446V9.639H47.9261V10.36H45.6446V12.262H48.1742V13H44.9307V7H48.1742V7.737Z" fill="white"/>
<path d="M51.1843 13H50.4704V7.737H48.9186V7H52.7361V7.737H51.1843V13Z" fill="white"/>
<path d="M55.4981 13V7H56.212V13H55.4981Z" fill="white"/>
<path d="M59.3779 13H58.664V7.737H57.1122V7H60.9298V7.737H59.3779V13Z" fill="white"/>
<path d="M68.1564 12.225C67.6101 12.831 66.9314 13.134 66.1194 13.134C65.3073 13.134 64.6286 12.831 64.0833 12.225C63.537 11.619 63.2647 10.877 63.2647 9.99999C63.2647 9.12299 63.537 8.38099 64.0833 7.77499C64.6286 7.16899 65.3073 6.86499 66.1194 6.86499C66.9268 6.86499 67.6046 7.16999 68.1527 7.77899C68.7009 8.38799 68.9749 9.12799 68.9749 9.99999C68.9749 10.877 68.7018 11.619 68.1564 12.225ZM64.6101 11.722C65.0212 12.172 65.524 12.396 66.1194 12.396C66.7148 12.396 67.2185 12.171 67.6286 11.722C68.0398 11.272 68.2462 10.698 68.2462 9.99999C68.2462 9.30199 68.0398 8.72799 67.6286 8.27799C67.2185 7.82799 66.7148 7.60399 66.1194 7.60399C65.524 7.60399 65.0212 7.82899 64.6101 8.27799C64.1999 8.72799 63.9935 9.30199 63.9935 9.99999C63.9935 10.698 64.1999 11.272 64.6101 11.722Z" fill="white"/>
<path d="M69.9768 13V7H70.8453L73.5453 11.667H73.5759L73.5453 10.511V7H74.2592V13H73.5138L70.6889 8.106H70.6583L70.6889 9.262V13H69.9768Z" fill="white"/>
<path d="M43.9056 10.2429C43.9056 11.0809 43.676 11.7479 43.2158 12.2459C42.6936 12.8379 42.0121 13.1339 41.1751 13.1339C40.3732 13.1339 39.6908 12.8339 39.1306 12.2339C38.5695 11.6329 38.2889 10.8889 38.2889 10.0009C38.2889 9.11194 38.5695 8.36794 39.1306 7.76794C39.6908 7.16694 40.3732 6.86694 41.1751 6.86694C41.5732 6.86694 41.9538 6.95094 42.3149 7.11794C42.6769 7.28594 42.9667 7.50894 43.1834 7.78794L42.6954 8.31594C42.3278 7.84094 41.8213 7.60394 41.1741 7.60394C40.5889 7.60394 40.0834 7.82594 39.6565 8.26994C39.2297 8.71394 39.0167 9.29094 39.0167 9.99994C39.0167 10.7089 39.2297 11.2859 39.6565 11.7299C40.0834 12.1739 40.5889 12.3959 41.1741 12.3959C41.7945 12.3959 42.3121 12.1729 42.726 11.7259C42.9945 11.4349 43.1501 11.0299 43.1917 10.5109H41.1741V9.78994H43.8658C43.8936 9.94694 43.9056 10.0979 43.9056 10.2429Z" stroke="white" stroke-width="0.2" stroke-miterlimit="10"/>
<path d="M48.1742 7.737H45.6446V9.639H47.9261V10.36H45.6446V12.262H48.1742V13H44.9307V7H48.1742V7.737Z" stroke="white" stroke-width="0.2" stroke-miterlimit="10"/>
<path d="M51.1843 13H50.4704V7.737H48.9186V7H52.7361V7.737H51.1843V13Z" stroke="white" stroke-width="0.2" stroke-miterlimit="10"/>
<path d="M55.4981 13V7H56.212V13H55.4981Z" stroke="white" stroke-width="0.2" stroke-miterlimit="10"/>
<path d="M59.3779 13H58.664V7.737H57.1122V7H60.9298V7.737H59.3779V13Z" stroke="white" stroke-width="0.2" stroke-miterlimit="10"/>
<path d="M68.1564 12.225C67.6101 12.831 66.9314 13.134 66.1194 13.134C65.3073 13.134 64.6286 12.831 64.0833 12.225C63.537 11.619 63.2647 10.877 63.2647 9.99999C63.2647 9.12299 63.537 8.38099 64.0833 7.77499C64.6286 7.16899 65.3073 6.86499 66.1194 6.86499C66.9268 6.86499 67.6046 7.16999 68.1527 7.77899C68.7009 8.38799 68.9749 9.12799 68.9749 9.99999C68.9749 10.877 68.7018 11.619 68.1564 12.225ZM64.6101 11.722C65.0212 12.172 65.524 12.396 66.1194 12.396C66.7148 12.396 67.2185 12.171 67.6286 11.722C68.0398 11.272 68.2462 10.698 68.2462 9.99999C68.2462 9.30199 68.0398 8.72799 67.6286 8.27799C67.2185 7.82799 66.7148 7.60399 66.1194 7.60399C65.524 7.60399 65.0212 7.82899 64.6101 8.27799C64.1999 8.72799 63.9935 9.30199 63.9935 9.99999C63.9935 10.698 64.1999 11.272 64.6101 11.722Z" stroke="white" stroke-width="0.2" stroke-miterlimit="10"/>
<path d="M69.9768 13V7H70.8453L73.5453 11.667H73.5759L73.5453 10.511V7H74.2592V13H73.5138L70.6889 8.106H70.6583L70.6889 9.262V13H69.9768Z" stroke="white" stroke-width="0.2" stroke-miterlimit="10"/>
<g filter="url(#filter0_ii)">
<path d="M9.66297 7.538C9.39352 7.846 9.23426 8.324 9.23426 8.943V31.059C9.23426 31.679 9.39352 32.156 9.66297 32.464L9.73148 32.536L21.2028 20.147V20.001V19.855L9.73148 7.465L9.66297 7.538Z" fill="url(#paint0_linear)"/>
<path d="M25.0259 24.278L21.2028 20.147V20.001V19.855L25.0268 15.725L25.113 15.778L29.6435 18.558C30.937 19.352 30.937 20.651 29.6435 21.446L25.113 24.226L25.0259 24.278Z" fill="url(#paint1_linear)"/>
<g filter="url(#filter1_i)">
<path d="M25.113 24.225L21.2019 20.001L9.66296 32.464C10.0889 32.952 10.7935 33.012 11.587 32.526L25.113 24.225Z" fill="url(#paint2_linear)"/>
</g>
<path d="M25.113 15.777L11.587 7.477C10.7935 6.99 10.0889 7.051 9.66296 7.539L21.2028 20.002L25.113 15.777Z" fill="url(#paint3_linear)"/>
</g>
<path d="M5 1H120V-1H5V1ZM124 5V35H126V5H124ZM120 39H5V41H120V39ZM1 35V5H-1V35H1ZM5 39C2.79086 39 1 37.2091 1 35H-1C-1 38.3137 1.68629 41 5 41V39ZM124 35C124 37.2091 122.209 39 120 39V41C123.314 41 126 38.3137 126 35H124ZM120 1C122.209 1 124 2.79086 124 5H126C126 1.68629 123.314 -1 120 -1V1ZM5 -1C1.68629 -1 -1 1.68629 -1 5H1C1 2.79086 2.79086 1 5 1V-1Z" fill="#A6A6A6"/>
<defs>
<filter id="filter0_ii" x="9.23426" y="7.14092" width="21.3794" height="25.7208" filterUnits="userSpaceOnUse" color-interpolation-filters="sRGB">
<feFlood flood-opacity="0" result="BackgroundImageFix"/>
<feBlend mode="normal" in="SourceGraphic" in2="BackgroundImageFix" result="shape"/>
<feColorMatrix in="SourceAlpha" type="matrix" values="0 0 0 0 0 0 0 0 0 0 0 0 0 0 0 0 0 0 127 0" result="hardAlpha"/>
<feOffset dy="-0.15"/>
<feComposite in2="hardAlpha" operator="arithmetic" k2="-1" k3="1"/>
<feColorMatrix type="matrix" values="0 0 0 0 0 0 0 0 0 0 0 0 0 0 0 0 0 0 0.12 0"/>
<feBlend mode="normal" in2="shape" result="effect1_innerShadow"/>
<feColorMatrix in="SourceAlpha" type="matrix" values="0 0 0 0 0 0 0 0 0 0 0 0 0 0 0 0 0 0 127 0" result="hardAlpha"/>
<feOffset dy="0.15"/>
<feComposite in2="hardAlpha" operator="arithmetic" k2="-1" k3="1"/>
<feColorMatrix type="matrix" values="0 0 0 0 1 0 0 0 0 1 0 0 0 0 1 0 0 0 0.25 0"/>
<feBlend mode="normal" in2="effect1_innerShadow" result="effect2_innerShadow"/>
</filter>
<filter id="filter1_i" x="9.66296" y="20.001" width="15.45" height="12.8607" filterUnits="userSpaceOnUse" color-interpolation-filters="sRGB">
<feFlood flood-opacity="0" result="BackgroundImageFix"/>
<feBlend mode="normal" in="SourceGraphic" in2="BackgroundImageFix" result="shape"/>
<feColorMatrix in="SourceAlpha" type="matrix" values="0 0 0 0 0 0 0 0 0 0 0 0 0 0 0 0 0 0 127 0" result="hardAlpha"/>
<feOffset dy="-0.15"/>
<feComposite in2="hardAlpha" operator="arithmetic" k2="-1" k3="1"/>
<feColorMatrix type="matrix" values="0 0 0 0 0 0 0 0 0 0 0 0 0 0 0 0 0 0 0.08 0"/>
<feBlend mode="normal" in2="shape" result="effect1_innerShadow"/>
</filter>
<linearGradient id="paint0_linear" x1="20.1859" y1="8.709" x2="3.45351" y2="24.202" gradientUnits="userSpaceOnUse">
<stop stop-color="#00A0FF"/>
<stop offset="0.0066" stop-color="#00A1FF"/>
<stop offset="0.2601" stop-color="#00BEFF"/>
<stop offset="0.5122" stop-color="#00D2FF"/>
<stop offset="0.7604" stop-color="#00DFFF"/>
<stop offset="1" stop-color="#00E3FF"/>
</linearGradient>
<linearGradient id="paint1_linear" x1="31.3273" y1="20.001" x2="8.9237" y2="20.001" gradientUnits="userSpaceOnUse">
<stop stop-color="#FFE000"/>
<stop offset="0.4087" stop-color="#FFBD00"/>
<stop offset="0.7754" stop-color="#FFA500"/>
<stop offset="1" stop-color="#FF9C00"/>
</linearGradient>
<linearGradient id="paint2_linear" x1="22.989" y1="22.2949" x2="0.297717" y2="43.3053" gradientUnits="userSpaceOnUse">
<stop stop-color="#FF3A44"/>
<stop offset="1" stop-color="#C31162"/>
</linearGradient>
<linearGradient id="paint3_linear" x1="6.75685" y1="0.176798" x2="16.8891" y2="9.55854" gradientUnits="userSpaceOnUse">
<stop stop-color="#32A071"/>
<stop offset="0.0685" stop-color="#2DA771"/>
<stop offset="0.4762" stop-color="#15CF74"/>
<stop offset="0.8009" stop-color="#06E775"/>
<stop offset="1" stop-color="#00F076"/>
</linearGradient>
</defs>
</svg>
